<?xml version="1.0" encoding="UTF-8" standalone="no"?>
<!-- Created with Inkscape (http://www.inkscape.org/) -->

<svg
   width="210mm"
   height="297mm"
   viewBox="0 0 210 297"
   version="1.1"
   id="svg5"
   inkscape:version="1.1.2 (0a00cf5339, 2022-02-04)"
   sodipodi:docname="circle.svg"
   xmlns:inkscape="http://www.inkscape.org/namespaces/inkscape"
   xmlns:sodipodi="http://sodipodi.sourceforge.net/DTD/sodipodi-0.dtd"
   xmlns="http://www.w3.org/2000/svg"
   xmlns:svg="http://www.w3.org/2000/svg">
  <sodipodi:namedview
     id="namedview7"
     pagecolor="#ffffff"
     bordercolor="#666666"
     borderopacity="1.0"
     inkscape:pageshadow="2"
     inkscape:pageopacity="0.0"
     inkscape:pagecheckerboard="0"
     inkscape:document-units="mm"
     showgrid="false"
     inkscape:lockguides="false"
     inkscape:zoom="0.52284039"
     inkscape:cx="594.8278"
     inkscape:cy="721.06136"
     inkscape:window-width="1920"
     inkscape:window-height="1008"
     inkscape:window-x="1920"
     inkscape:window-y="0"
     inkscape:window-maximized="1"
     inkscape:current-layer="layer1" />
  <defs
     id="defs2" />
  <g
     inkscape:label="Слой 1"
     inkscape:groupmode="layer"
     id="layer1">
    <path
       id="path31"
       style="fill:#ff9955;stroke-width:0.463022"
       d="m 105,42.5 a 105.00009,105.00008 0 0 0 -105,105 105.00009,105.00008 0 0 0 105,105 105.00009,105.00008 0 0 0 105,-105 105.00009,105.00008 0 0 0 -105,-105 z m 0,17.499845 A 87.50007,87.500112 0 0 1 192.50015,147.5 87.50007,87.500112 0 0 1 105,235.00018 87.50007,87.500112 0 0 1 17.499849,147.5 87.50007,87.500112 0 0 1 105,59.999845 Z" />
  </g>
</svg>
